# xmcd CD database file
#
# Track frame offsets:
#	150
#	22975
#	43988
#	71600
#	95590
#	108130
#	132175
#	158888
#	180180
#
# Disc length: 2726 seconds
#
# Revision: 0
# Processed by: cddbd v1.5.2PL0 Copyright (c) Steve Scherf et al.
# Submitted via: CDex 1.51
#
DISCID=6c0aa409
DTITLE=Ferenc Snétberger - Nomad 
DYEAR=2005
DGENRE=Jazz
TTITLE0=Nomad  - Nomad
TTITLE1=Nomad  - Mountain Walk South
TTITLE2=Nomad  - River Crossing
TTITLE3=Nomad  - Gathering
TTITLE4=Nomad  - Wildlife
TTITLE5=Nomad  - Mountain Walk East
TTITLE6=Nomad  - Tracking
TTITLE7=Nomad  - Follow the Sun
TTITLE8=Nomad  - Trading Ground
EXTD=YEAR: 2005
EXTT0=
EXTT1=
EXTT2=
EXTT3=
EXTT4=
EXTT5=
EXTT6=
EXTT7=
EXTT8=
PLAYORDER=
